#!OML:ASF H:\Terrain\Patient Classification 1\Animal2\Wednesday\Animal2.ASF
:FULLY-SPECIFIED
:DEGREES
1428
root 11.4031 16.2875 -13.4956 26.8009 -36.5555 0.379421
lowerback 17.1993 -8.2383 -5.35188
upperback -9.93985 -12.3425 3.503
thorax -18.886 -4.49234 10.8856
lowerneck -10.7711 -6.90162 9.58792
upperneck 0.228718 -10.2229 -9.51677
head 0.810688 -5.38042 -4.70539
rclavicle 5.12864e-014 -5.56597e-015
rhumerus -61.2624 -25.5929 -7.45284
rradius 25.4358
rwrist 7.35356
rhand -29.3463 23.3672
rfingers 7.12502
rthumb -2.6862 -6.59562
lclavicle 5.12864e-014 -5.56597e-015
lhumerus -65.125 10.8667 17.1623
lradius 27.5869
lwrist 25.996
lhand -37.0771 30.1555
lfingers 7.12502
lthumb -10.1491 59.8908
rfemur -67.3007 10.2949 -5.50236
rtibia 49.7451
rfoot -21.2471 21.9079
rtoes 2.73557
lfemur -53.4698 24.7137 -24.4794
ltibia 60.2309
lfoot -31.8889 4.72525
ltoes -24.4339
1429
root 11.4214 16.2758 -13.4804 26.6461 -37.0687 0.568291
lowerback 17.1431 -8.28246 -5.37883
upperback -9.89418 -12.4162 3.42485
thorax -18.7913 -4.54084 10.8107
lowerneck -11.0326 -6.77418 9.87959
upperneck 0.398919 -10.0972 -9.87421
head 0.883 -5.33294 -4.8745
rclavicle 1.15295e-013 2.94201e-014
rhumerus -62.2239 -26.0593 -7.03224
rradius 25.1351
rwrist 8.12466
rhand -29.3904 22.8876
rfingers 7.12502
rthumb -2.72878 -7.07468
lclavicle 1.15295e-013 2.94201e-014
lhumerus -65.2452 11.3143 17.5845
lradius 27.5784
lwrist 25.3241
lhand -37.4031 29.9578
lfingers 7.12502
lthumb -10.4635 59.6774
rfemur -67.4563 10.1735 -5.63715
rtibia 49.8827
rfoot -21.2102 22.2792
rtoes 2.04527
lfemur -53.4389 24.9698 -24.8749
ltibia 60.4126
lfoot -32.1202 4.61037
ltoes -23.1556
1430
root 11.4329 16.265 -13.4694 26.7232 -37.4923 0.369215
lowerback 17.1466 -8.27392 -5.29641
upperback -9.89462 -12.3679 3.51484
thorax -18.8005 -4.52183 10.8568
lowerneck -11.0463 -6.73237 10.016
upperneck 0.453097 -10.0532 -10.2261
head 0.88219 -5.32167 -5.00405
rclavicle 4.51241e-014 2.06736e-014
rhumerus -63.1401 -26.3061 -6.65787
rradius 24.8827
rwrist 8.81571
rhand -29.8145 22.4979
rfingers 7.12502
rthumb -3.13832 -7.45873
lclavicle 4.51241e-014 2.06736e-014
lhumerus -65.383 11.5669 18.4244
lradius 27.4905
lwrist 24.8419
lhand -37.8752 29.4303
lfingers 7.12502
lthumb -10.9189 59.1264
rfemur -67.6881 10.3437 -5.58529
rtibia 50.039
rfoot -20.8917 22.6708
rtoes 3.22735
lfemur -53.4533 25.344 -24.8994
ltibia 60.592
lfoot -32.1861 4.61903
ltoes -22.4567
1431
root 11.4436 16.2499 -13.4604 26.7154 -37.9971 0.261553
lowerback 17.19 -8.27946 -5.34853
upperback -9.86101 -12.3812 3.55717
thorax -18.76 -4.52211 10.9363
lowerneck -10.8783 -6.64913 10.0875
upperneck 0.164549 -9.95668 -10.2684
head 0.775186 -5.27285 -5.01195
rclavicle -5.28767e-014 2.8625e-014
rhumerus -63.9094 -26.5941 -6.53422
rradius 24.672
rwrist 9.29814
rhand -30.2624 22.0827
rfingers 7.12502
rthumb -3.57087 -7.86715
lclavicle -5.28767e-014 2.8625e-014
lhumerus -65.5519 12.0669 18.8621
lradius 27.3697
lwrist 24.4811
lhand -38.1552 29.3441
lfingers 7.12502
lthumb -11.1889 59.0258
rfemur -67.9384 10.527 -5.62894
rtibia 50.1993
rfoot -20.4844 23.228
rtoes 4.83146
lfemur -53.3877 25.6868 -24.9855
ltibia 60.7734
lfoot -32.3192 4.86416
ltoes -22.9086
1432
root 11.4535 16.2349 -13.4487 26.6178 -38.607 0.35683
lowerback 17.2194 -8.28969 -5.58728
upperback -9.57193 -12.4654 3.46002
thorax -18.8967 -4.50043 11.1611
lowerneck -10.7578 -6.508 10.0196
upperneck -0.143622 -9.77233 -10.032
head 0.698904 -5.17386 -4.91559
rclavicle 1.10723e-013 -1.66979e-014
rhumerus -64.444 -26.7853 -6.69402
rradius 24.4355
rwrist 9.50896
rhand -30.6173 21.6561
rfingers 7.12502
rthumb -3.91356 -8.28768
lclavicle 1.10723e-013 -1.66979e-014
lhumerus -65.7944 12.712 19.1358
lradius 27.3242
lwrist 24.2882
lhand -38.2883 29.2985
lfingers 7.12502
lthumb -11.3173 58.9731
rfemur -68.1865 10.618 -5.80507
rtibia 50.3295
rfoot -20.5541 23.5871
rtoes 4.25242
lfemur -53.3509 26.0043 -25.278
ltibia 60.9711
lfoot -32.5084 5.05929
ltoes -22.9236
